<svg xmlns="http://www.w3.org/2000/svg" width="640" height="480" viewBox="0 0 640 480" role="img" aria-label="Plumber Illustration"><defs><linearGradient id="g" x1="0" x2="1"><stop stop-color="#cfe4ff"/><stop offset="1" stop-color="#eaf2ff"/></linearGradient></defs><rect width="640" height="480" fill="url(#g)"/><g fill="#0d6efd"><circle cx="160" cy="220" r="80" opacity="0.12"/><circle cx="420" cy="160" r="60" opacity="0.12"/><rect x="260" y="210" width="120" height="120" rx="16" opacity="0.18"/></g><g fill="#0b2239"><rect x="190" y="260" width="260" height="20" rx="10"/><rect x="210" y="280" width="220" height="20" rx="10"/></g><g transform="translate(300 160)"><path d="M40 0c22 0 40 18 40 40v40h-16v-40c0-13-11-24-24-24s-24 11-24 24v40H0v-40C0 18 18 0 40 0z" fill="#0d6efd"/><rect x="-20" y="90" width="120" height="16" rx="8" fill="#0b2239"/></g></svg>
